<?xml version="1.0" encoding="UTF-8"?>
<svg width="18px" height="18px" viewBox="0 0 18 18" version="1.1" xmlns="http://www.w3.org/2000/svg" xmlns:xlink="http://www.w3.org/1999/xlink">
    <title>编组</title>
    <g id="20240529-会后调整" stroke="none" stroke-width="1" fill="none" fill-rule="evenodd">
        <g id="切图" transform="translate(-2416.000000, -1992.000000)" fill="currentColor">
            <path d="M2420.05809,2000.58528 L2420.90304,2000.58528 C2422.55768,2000.58528 2423.43784,1999.28267 2423.43784,1997.9096 L2423.43784,1996.43098 C2423.43784,1996.36058 2423.43784,1996.25495 2423.47301,1996.18455 C2423.61387,1995.41003 2424.35319,1994.88196 2425.12774,1995.02274 L2425.33892,1995.05797 C2426.04306,1995.1636 2426.64151,1995.62126 2426.92316,1996.25495 C2427.2048,1996.85347 2427.31043,1997.52234 2427.2048,1998.15608 L2427.06402,1999.24744 L2427.06402,1999.28267 C2427.06402,1999.3883 2427.13442,1999.4587 2427.24005,1999.4587 L2430.93668,1999.4587 C2431.6056,1999.56432 2432.06326,2000.16277 2431.99286,2000.86693 L2430.76065,2006.99276 C2430.6902,2007.59121 2430.16213,2008.04887 2429.52844,2008.04887 L2420.33975,2008.04887 C2419.77644,2008.04887 2419.3187,2007.59121 2419.28354,2007.02792 L2419.00191,2001.67663 C2418.96666,2001.07817 2419.42432,2000.58528 2420.02286,2000.58528 L2420.05809,2000.58528 Z M2422.48729,2006.99276 L2429.52844,2006.99276 C2429.59884,2006.99276 2429.70447,2006.92229 2429.70447,2006.85189 L2430.93668,2000.76131 C2430.93668,2000.65568 2430.86628,2000.58528 2430.79582,2000.55005 L2427.24005,2000.55005 C2426.57113,2000.55005 2426.00783,1999.98676 2426.00783,1999.31784 L2426.00783,1999.14181 L2426.14869,1998.05046 C2426.21907,1997.59279 2426.14869,1997.13513 2425.93744,1996.74786 C2425.79658,1996.39573 2425.47977,1996.18455 2425.12774,1996.1141 L2424.91648,1996.07895 C2424.70522,1996.0437 2424.5292,1996.18455 2424.49397,1996.36058 L2424.49397,1997.87445 C2424.49397,1999.3883 2423.68427,2000.90216 2422.1,2001.43023 L2422.48729,2006.99276 Z M2420.76216,2001.60624 L2420.41013,2001.60624 C2420.19887,2001.60624 2420.05809,2001.78226 2420.05809,2001.95827 L2420.19887,2006.64065 C2420.19887,2006.81674 2420.3749,2006.99276 2420.55093,2006.99276 L2421.07905,2006.99276 C2421.29023,2006.99276 2421.43108,2006.85189 2421.43108,2006.64065 L2421.43108,2006.60548 L2421.11422,2001.95827 C2421.07905,2001.78226 2420.93819,2001.60624 2420.76216,2001.60624 Z" id="Fill-1" transform="translate(2425.500000, 2001.524436) scale(1, -1) translate(-2425.500000, -2001.524436) "></path>
        </g>
    </g>
</svg>