<?xml version="1.0" encoding="UTF-8"?>
<svg width="18px" height="18px" viewBox="0 0 18 18" version="1.1" xmlns="http://www.w3.org/2000/svg" xmlns:xlink="http://www.w3.org/1999/xlink">
    <title>编组</title>
    <g id="20240529-会后调整" stroke="none" stroke-width="1" fill="none" fill-rule="evenodd">
        <g id="切图" transform="translate(-2447.000000, -1992.000000)" fill="currentColor" stroke="currentColor" stroke-width="0.2">
            <path d="M2462.52902,2003.07465 C2462.76779,2003.07472 2462.9688,2003.25339 2462.99669,2003.49056 L2463,2003.54568 L2463,2005.51165 C2463,2006.3105 2462.42911,2006.98314 2461.6821,2007.02834 L2461.6016,2007.03116 L2451.39847,2007.03116 C2450.63966,2007.03116 2450.04241,2006.38588 2450.00237,2005.59646 L2450,2005.51165 L2450,2003.54518 C2450.00029,2003.29601 2450.19462,2003.0901 2450.44345,2003.07551 C2450.69219,2003.06092 2450.90932,2003.24261 2450.93872,2003.49006 L2450.94201,2003.54518 L2450.94201,2005.51121 C2450.94201,2005.82019 2451.13183,2006.05522 2451.35132,2006.08583 L2451.39847,2006.0887 L2461.6016,2006.0887 C2461.8239,2006.0887 2462.02879,2005.87388 2462.05517,2005.5762 L2462.05797,2005.51121 L2462.05797,2003.54518 C2462.05797,2003.28508 2462.26884,2003.07421 2462.52902,2003.07421 L2462.52902,2003.07465 Z M2456.53158,1996 C2456.79169,1996 2457.00256,1996.21087 2457.00256,1996.47105 L2457.00256,2002.48121 L2458.98699,2000.49634 L2459.03076,2000.45724 C2459.23977,2000.29338 2459.54012,2000.32031 2459.71656,2000.51884 C2459.89294,2000.71735 2459.88451,2001.01876 2459.6973,2001.20707 L2457.26114,2003.64314 L2457.20466,2003.69547 C2456.78212,2004.06288 2456.1411,2004.0454 2455.73884,2003.64314 L2453.30277,2001.20707 L2453.26368,2001.1633 C2453.09987,2000.95436 2453.12675,2000.65416 2453.32505,2000.47772 C2453.52327,2000.30127 2453.82462,2000.3094 2454.01307,2000.49634 L2455.99694,2002.48121 L2455.99744,1996.47105 C2455.99744,1996.21087 2456.20831,1996 2456.46847,1996 L2456.53158,1996 Z" id="Fill-1"></path>
        </g>
    </g>
</svg>